<?xml version="1.0" encoding="utf-8"?>
<!-- Generator: Adobe Illustrator 16.0.0, SVG Export Plug-In . SVG Version: 6.00 Build 0)  -->
<!DOCTYPE svg PUBLIC "-//W3C//DTD SVG 1.1//EN" "http://www.w3.org/Graphics/SVG/1.1/DTD/svg11.dtd">
<svg version="1.1" id="Layer_1" xmlns="http://www.w3.org/2000/svg" xmlns:xlink="http://www.w3.org/1999/xlink" x="0px" y="0px"
	 width="90px" height="90px" viewBox="0 0 90 90" enable-background="new 0 0 90 90" xml:space="preserve">
<circle fill="#669900" cx="44.777" cy="44.703" r="43.5"/>
<path fill="#D1D2D4" d="M66.99,61.344l-8.58-8.58c-0.756-0.754-2.121-0.682-3.492,0.031l-3.744-3.74
	c4.877-6.372,4.418-15.518-1.41-21.348c-6.348-6.344-16.636-6.344-22.984,0c-6.343,6.348-6.343,16.637,0,22.983
	c5.831,5.828,14.977,6.289,21.349,1.41l3.742,3.74c-0.713,1.375-0.787,2.74-0.033,3.494l8.58,8.582
	c1.084,1.082,3.438,0.486,5.248-1.328C67.479,64.779,68.074,62.428,66.99,61.344z M29.198,48.273c-5.011-5.012-5.011-13.141,0-18.15
	c5.013-5.015,13.133-5.011,18.15,0c5.008,5.009,5.008,13.134,0,18.15C42.331,53.285,34.207,53.285,29.198,48.273z"/>
</svg>
