<?xml version="1.0" encoding="utf-8"?>
<!-- Generator: Adobe Illustrator 16.0.0, SVG Export Plug-In . SVG Version: 6.00 Build 0)  -->
<!DOCTYPE svg PUBLIC "-//W3C//DTD SVG 1.1//EN" "http://www.w3.org/Graphics/SVG/1.1/DTD/svg11.dtd">
<svg version="1.1" id="Layer_1" xmlns="http://www.w3.org/2000/svg" xmlns:xlink="http://www.w3.org/1999/xlink" x="0px" y="0px"
	 width="90px" height="90px" viewBox="0 0 90 90" enable-background="new 0 0 90 90" xml:space="preserve">
<circle fill="#D1D2D4" cx="44.889" cy="44.866" r="43.5"/>
<g>
	<path fill="#404041" d="M44.887,14.254c-10.652,0-19.286,8.634-19.286,19.287c0,10.656,8.634,19.289,19.286,19.289
		c10.656,0,19.29-8.633,19.29-19.289C64.177,22.888,55.543,14.254,44.887,14.254z M45.827,48.816c-5.749,0-10.807-3.775-13.754-9.49
		h27.508C56.634,45.041,51.579,48.816,45.827,48.816z"/>
	<path fill="#404041" d="M56.525,54.81c-3.469,1.859-7.433,2.92-11.641,2.92c-4.204,0-8.166-1.059-11.636-2.92
		c-7.493,1.969-13.367,6.635-16.058,16.668h55.395C69.895,61.442,64.023,56.776,56.525,54.81z"/>
</g>
</svg>
